<svg width="500" height="300" viewBox="0 0 500 300" fill="none" xmlns="http://www.w3.org/2000/svg">
  <!-- Background design elements -->
  <circle cx="250" cy="150" r="140" fill="#F0F9FF" />
  <circle cx="250" cy="150" r="100" fill="#E0F2FE" stroke="#38BDF8" stroke-width="1" stroke-dasharray="4 4" />
  
  <!-- Aluminum can design -->
  <g transform="translate(190, 70)">
    <!-- Can body -->
    <rect x="0" y="30" width="120" height="160" rx="6" fill="#D1D5DB" />
    <rect x="0" y="30" width="120" height="160" rx="6" fill="url(#gradient-can)" />
    
    <!-- Can top -->
    <ellipse cx="60" cy="30" rx="60" ry="10" fill="#E5E7EB" />
    <ellipse cx="60" cy="30" rx="50" ry="6" fill="#9CA3AF" />
    
    <!-- Recycling symbol -->
    <g transform="translate(35, 100) scale(2.5)">
      <path d="M18.6,12.5L17,10L14.5,13.7L12.9,12.7L15.8,8.3H17L18.6,12.5M11.6,17L9.5,14.5L6.4,16.5L5.6,15.2L9.5,12.8L11.9,14.9L11.6,17M7.1,10.4L9.5,7.8L9.2,5.8L11.2,5.3L11.9,8.3L9.1,11.4L7.1,10.4M20,12C20,9.46 18.81,7.19 16.96,5.73L16,6.46C17.57,7.7 18.56,9.74 18.56,12C18.56,14.26 17.57,16.3 16,17.54L16.96,18.27C18.81,16.81 20,14.54 20,12M15.93,12C15.93,10.4 15.33,8.94 14.3,7.87L13.37,8.57C14.17,9.43 14.65,10.65 14.65,12C14.65,13.35 14.17,14.57 13.37,15.43L14.3,16.13C15.33,15.06 15.93,13.6 15.93,12M11.07,12C11.07,10.97 10.6,10.07 9.86,9.47L8.89,10.15C9.34,10.57 9.62,11.24 9.62,12C9.62,12.76 9.34,13.43 8.89,13.85L9.86,14.53C10.6,13.93 11.07,13.03 11.07,12Z" fill="#0EA5E9" />
    </g>
  </g>
  
  <!-- Recycling arrows in the background -->
  <g transform="translate(50, 200) rotate(-15)">
    <path d="M0,0 A40,15 0 0,1 80,0" stroke="#0EA5E9" stroke-width="2" fill="none" />
    <polygon points="80,0 73,-5 73,5" fill="#0EA5E9" />
  </g>
  
  <g transform="translate(350, 100) rotate(45)">
    <path d="M0,0 A40,15 0 0,1 80,0" stroke="#0EA5E9" stroke-width="2" fill="none" />
    <polygon points="80,0 73,-5 73,5" fill="#0EA5E9" />
  </g>
  
  <g transform="translate(300, 240) rotate(195)">
    <path d="M0,0 A40,15 0 0,1 80,0" stroke="#0EA5E9" stroke-width="2" fill="none" />
    <polygon points="80,0 73,-5 73,5" fill="#0EA5E9" />
  </g>
  
  <!-- Gradient definitions -->
  <defs>
    <linearGradient id="gradient-can" x1="0" y1="0" x2="120" y2="160" gradientUnits="userSpaceOnUse">
      <stop offset="0" stop-color="#E5E7EB" />
      <stop offset="0.5" stop-color="#D1D5DB" />
      <stop offset="1" stop-color="#9CA3AF" />
    </linearGradient>
  </defs>
</svg> 