<svg width="600" height="400" viewBox="0 0 600 400" fill="none" xmlns="http://www.w3.org/2000/svg">
  <!-- Background elements -->
  <path d="M0 30C0 13.4315 13.4315 0 30 0H570C586.569 0 600 13.4315 600 30V370C600 386.569 586.569 400 570 400H30C13.4315 400 0 386.569 0 370V30Z" fill="#F0F9FF"/>
  
  <!-- Abstract wave shapes -->
  <path d="M0 330C150 280 400 380 600 320V400H0V330Z" fill="#E0F2FE"/>
  <path d="M0 350C150 320 350 380 600 340V400H0V350Z" fill="#BAE6FD" fill-opacity="0.5"/>
  
  <!-- Backdrop circle -->
  <circle cx="300" cy="170" r="120" fill="#E0F2FE"/>
  <circle cx="300" cy="170" r="90" fill="#BAE6FD" fill-opacity="0.5"/>
  
  <!-- Recycling symbol -->
  <g transform="translate(255, 125) scale(3)">
    <path d="M18.6,12.5L17,10L14.5,13.7L12.9,12.7L15.8,8.3H17L18.6,12.5M11.6,17L9.5,14.5L6.4,16.5L5.6,15.2L9.5,12.8L11.9,14.9L11.6,17M7.1,10.4L9.5,7.8L9.2,5.8L11.2,5.3L11.9,8.3L9.1,11.4L7.1,10.4M20,12C20,9.46 18.81,7.19 16.96,5.73L16,6.46C17.57,7.7 18.56,9.74 18.56,12C18.56,14.26 17.57,16.3 16,17.54L16.96,18.27C18.81,16.81 20,14.54 20,12M15.93,12C15.93,10.4 15.33,8.94 14.3,7.87L13.37,8.57C14.17,9.43 14.65,10.65 14.65,12C14.65,13.35 14.17,14.57 13.37,15.43L14.3,16.13C15.33,15.06 15.93,13.6 15.93,12M11.07,12C11.07,10.97 10.6,10.07 9.86,9.47L8.89,10.15C9.34,10.57 9.62,11.24 9.62,12C9.62,12.76 9.34,13.43 8.89,13.85L9.86,14.53C10.6,13.93 11.07,13.03 11.07,12Z" fill="#0EA5E9"/>
  </g>
  
  <!-- Aluminum can designs -->
  <g transform="translate(120, 150)">
    <!-- Aluminum can -->
    <rect x="0" y="15" width="50" height="110" rx="5" fill="#D1D5DB"/>
    <rect x="0" y="15" width="50" height="110" rx="5" fill="url(#can-gradient-1)"/>
    <ellipse cx="25" cy="15" rx="25" ry="5" fill="#9CA3AF"/>
  </g>
  
  <g transform="translate(430, 140)">
    <!-- Aluminum can -->
    <rect x="0" y="15" width="50" height="110" rx="5" fill="#D1D5DB"/>
    <rect x="0" y="15" width="50" height="110" rx="5" fill="url(#can-gradient-2)"/>
    <ellipse cx="25" cy="15" rx="25" ry="5" fill="#9CA3AF"/>
  </g>
  
  <!-- Floating aluminum pieces -->
  <rect x="180" y="80" width="30" height="50" rx="2" fill="#D1D5DB" transform="rotate(15)"/>
  <rect x="390" y="90" width="25" height="40" rx="2" fill="#D1D5DB" transform="rotate(-10)"/>
  <rect x="180" y="270" width="20" height="35" rx="2" fill="#D1D5DB" transform="rotate(25)"/>
  <rect x="420" y="260" width="22" height="38" rx="2" fill="#D1D5DB" transform="rotate(-20)"/>
  
  <!-- Connecting lines/arrows -->
  <path d="M180 190C210 170 250 190 280 170" stroke="#0EA5E9" stroke-width="2" stroke-dasharray="4 4"/>
  <path d="M320 170C350 190 390 170 420 190" stroke="#0EA5E9" stroke-width="2" stroke-dasharray="4 4"/>
  
  <!-- Circular arrows around the recycling symbol -->
  <g transform="translate(300, 170) rotate(30)">
    <path d="M-140,0 A140,140 0 0,1 -98.99,-98.99" stroke="#0EA5E9" stroke-width="2" fill="none"/>
    <polygon points="-98.99,-98.99 -102.99,-90.99 -92.99,-94.99" fill="#0EA5E9"/>
  </g>
  
  <g transform="translate(300, 170) rotate(150)">
    <path d="M-140,0 A140,140 0 0,1 -98.99,-98.99" stroke="#0EA5E9" stroke-width="2" fill="none"/>
    <polygon points="-98.99,-98.99 -102.99,-90.99 -92.99,-94.99" fill="#0EA5E9"/>
  </g>
  
  <g transform="translate(300, 170) rotate(270)">
    <path d="M-140,0 A140,140 0 0,1 -98.99,-98.99" stroke="#0EA5E9" stroke-width="2" fill="none"/>
    <polygon points="-98.99,-98.99 -102.99,-90.99 -92.99,-94.99" fill="#0EA5E9"/>
  </g>
  
  <!-- Definitions for gradients -->
  <defs>
    <linearGradient id="can-gradient-1" x1="0" y1="15" x2="50" y2="125" gradientUnits="userSpaceOnUse">
      <stop offset="0" stop-color="#E5E7EB"/>
      <stop offset="1" stop-color="#9CA3AF"/>
    </linearGradient>
    <linearGradient id="can-gradient-2" x1="0" y1="15" x2="50" y2="125" gradientUnits="userSpaceOnUse">
      <stop offset="0" stop-color="#E5E7EB"/>
      <stop offset="1" stop-color="#9CA3AF"/>
    </linearGradient>
  </defs>
</svg> 