<svg width="800" height="600" viewBox="0 0 800 600" fill="none" xmlns="http://www.w3.org/2000/svg">
  <!-- Background -->
  <rect width="800" height="600" fill="#F0F9F0" />
  
  <!-- Grid pattern -->
  <pattern id="smallGrid" width="20" height="20" patternUnits="userSpaceOnUse">
    <path d="M 20 0 L 0 0 0 20" fill="none" stroke="#E0EFE0" stroke-width="1" />
  </pattern>
  
  <!-- Main container shape -->
  <rect x="150" y="100" width="500" height="400" rx="8" fill="white" stroke="#DDEEDD" stroke-width="2" />
  
  <!-- Recycling symbol - Simplified and stylized -->
  <g transform="translate(400, 250) scale(1.5)">
    <circle cx="0" cy="0" r="60" fill="#E8F6E8" />
    
    <path d="M0,-45 L15,-15 L-15,-15 Z" fill="#4CAF50" transform="rotate(0)" />
    <path d="M0,-45 L15,-15 L-15,-15 Z" fill="#4CAF50" transform="rotate(120)" />
    <path d="M0,-45 L15,-15 L-15,-15 Z" fill="#4CAF50" transform="rotate(240)" />
    
    <circle cx="0" cy="0" r="30" fill="#F0F9F0" />
    <path d="M-20,0 L20,0 M0,-20 L0,20" stroke="#4CAF50" stroke-width="5" />
  </g>
  
  <!-- Image icon -->
  <rect x="250" y="150" width="300" height="200" rx="4" fill="#F0F9F0" stroke="#DDEEDD" stroke-width="2" />
  <path d="M280 180 L320 230 L370 190 L440 290 L280 290 Z" fill="#D1E7D1" />
  <circle cx="330" cy="180" r="15" fill="#8FCC8F" />
  
  <!-- Material type icon -->
  <rect x="250" y="370" width="140" height="30" rx="4" fill="#F0F9F0" stroke="#DDEEDD" stroke-width="1" />
  <rect x="260" y="380" width="10" height="10" rx="2" fill="#8FCC8F" />
  <rect x="280" y="380" width="100" height="10" rx="2" fill="#E0EFE0" />
  
  <!-- Price tag -->
  <rect x="410" y="370" width="140" height="30" rx="4" fill="#F0F9F0" stroke="#DDEEDD" stroke-width="1" />
  <path d="M430 380 L440 380 L440 390 L430 390 Z" fill="#4CAF50" />
  <rect x="450" y="380" width="80" height="10" rx="2" fill="#E0EFE0" />
  
  <!-- Text label at the bottom -->
  <text x="400" y="450" font-family="Arial, sans-serif" font-size="16" font-weight="bold" fill="#4CAF50" text-anchor="middle">Kein Bild verfügbar</text>
  <text x="400" y="480" font-family="Arial, sans-serif" font-size="14" fill="#6B7280" text-anchor="middle">Recycling-Marktplatz</text>
</svg> 